<svg xmlns="http://www.w3.org/2000/svg" viewBox="0 0 640 512"><path fill="#FFD700" d="M64 104v88h96v-88H64zm224 0v88h96v-88h-96zm-64 0h-32v88h32v-88zm-128 0h-32v88h32v-88zm400 0h-32v88h32v-88zM0 104v208c0 8.8 7.2 16 16 16h48v64c0 17.7 14.3 32 32 32s32-14.3 32-32v-64h384v64c0 17.7 14.3 32 32 32s32-14.3 32-32v-64h48c8.8 0 16-7.2 16-16V104c0-39.8-32.2-72-72-72H72C32.2 32 0 64.2 0 104zm64 208h96v-88H64v88zm224 0h96v-88h-96v88zm-64 0h-32v-88h32v88zm-128 0h-32v-88h32v88zm400 0h-32v-88h32v88zm-64 0h-96v-88h96v88z"/></svg>
