<svg xmlns="http://www.w3.org/2000/svg" viewBox="0 0 576 512"><path fill="#DC3545" d="M288 0C422.4 0 512 35.2 512 80V96l0 32c17.7 0 32 14.3 32 32v64c0 17.7-14.3 32-32 32l0 160c0 17.7-14.3 32-32 32v32c0 17.7-14.3 32-32 32H416c-17.7 0-32-14.3-32-32V448H192v32c0 17.7-14.3 32-32 32H128c-17.7 0-32-14.3-32-32l0-32c-17.7 0-32-14.3-32-32l0-160c-17.7 0-32-14.3-32-32V160c0-17.7 14.3-32 32-32h0V96h0V80C64 35.2 153.6 0 288 0zM128 160v96c0 17.7 14.3 32 32 32H416c17.7 0 32-14.3 32-32V160c0-17.7-14.3-32-32-32H160c-17.7 0-32 14.3-32 32zM128 352c0 17.7 14.3 32 32 32h32c17.7 0 32-14.3 32-32s-14.3-32-32-32H160c-17.7 0-32 14.3-32 32zm288 32c17.7 0 32-14.3 32-32s-14.3-32-32-32H384c-17.7 0-32 14.3-32 32s14.3 32 32 32h32z"/></svg>
