<svg xmlns="http://www.w3.org/2000/svg" viewBox="0 0 448 512"><path fill="#007BFF" d="M96 0C43 0 0 43 0 96V352c0 48 35.2 87.7 81.1 94.9l-46 46C29.7 498.3 33.2 512 43.3 512h49.4c5.2 0 10.1-2.1 13.7-5.7L162.3 448H285.7l55.9 58.3c3.6 3.8 8.8 5.7 13.7 5.7h48.4c10.1 0 13.6-13.7 8.1-19.1l-46.1-46c46-7.1 81.4-46.9 81.4-94.9V96c0-53-43-96-96-96H96zM64 128c0-17.7 14.3-32 32-32h80c17.7 0 32 14.3 32 32v96c0 17.7-14.3 32-32 32H96c-17.7 0-32-14.3-32-32V128zm192-32h80c17.7 0 32 14.3 32 32v96c0 17.7-14.3 32-32 32H256c-17.7 0-32-14.3-32-32V128c0-17.7 14.3-32 32-32zM64 352c0-17.7 14.3-32 32-32H352c17.7 0 32 14.3 32 32s-14.3 32-32 32H96c-17.7 0-32-14.3-32-32z"/></svg>
