<svg xmlns="http://www.w3.org/2000/svg" viewBox="0 0 640 512"><path fill="#28A745" d="M171.3 96H224v96H111.3l30.4-75.9C146.5 104 158.2 96 171.3 96zM272 192V96h81.2c9.7 0 18.9 4.4 25 12l67.2 84H272zm256.2 1L428.2 68c-18.2-22.8-45.8-36-75-36H171.3c-39.3 0-74.6 23.9-89.1 60.3L40.6 196.4C16.8 205.8 0 228.9 0 256v80c0 17.7 14.3 32 32 32h24c17.7 0 32-14.3 32-32v-80H96V384c0 35.3 28.7 64 64 64h384c35.3 0 64-28.7 64-64V352h16c17.7 0 32-14.3 32-32V288c0-26.5-21.5-48-48-48h-3.8zM496 384c0 8.8-7.2 16-16 16H288 224 160c-8.8 0-16-7.2-16-16v-64H512v64zm32-240c0-44.2-35.8-80-80-80s-80 35.8-80 80s35.8 80 80 80s80-35.8 80-80zM288 32c-44.2 0-80 35.8-80 80s35.8 80 80 80s80-35.8 80-80s-35.8-80-80-80zM32 192c13.3 0 24-10.7 24-24s-10.7-24-24-24s-24 10.7-24 24s10.7 24 24 24z"/></svg>
