<svg xmlns="http://www.w3.org/2000/svg" viewBox="0 0 576 512"><path fill="#FFCC00" d="M176 222.1c-25.4 0-46 20.6-46 46s20.6 46 46 46 46-20.6 46-46-20.6-46-46-46zm224 0c-25.4 0-46 20.6-46 46s20.6 46 46 46 46-20.6 46-46-20.6-46-46-46zm112 39.3c0-13.3-3.2-26-9-37.4v-104c0-13.3-10.7-24-24-24h-24c-13.3 0-24 10.7-24 24v16H120v-16c0-13.3-10.7-24-24-24H72c-13.3 0-24 10.7-24 24v104c-5.8 11.4-9 24.1-9 37.4 0 21.7 8.2 41.5 21.5 56.6v44.8c0 17.7 14.3 32 32 32h32c17.7 0 32-14.3 32-32V374h256v6.7c0 17.7 14.3 32 32 32h32c17.7 0 32-14.3 32-32v-44.8c13.3-15.1 21.5-34.9 21.5-56.6zM136 96h240c29.8 0 54 24.2 54 54 0 20.9-12 39.1-29.5 47.9-2.5-32.4-29.5-58-62.5-58-34.9 0-63.3 28.3-63.3 63.3 0 2.3.1 4.6.4 6.8H252c.3-2.2.4-4.5.4-6.8 0-34.9-28.4-63.3-63.3-63.3-33 0-60 25.6-62.5 58C109 189.1 97 170.9 97 150c0-29.8 24.2-54 54-54h-15z"/></svg>
